<svg width="36" height="35" viewBox="0 0 25 24" fill="none" xmlns="http://www.w3.org/2000/svg">
<path d="M16.25 4.5C17.2437 4.5 18.1859 4.89375 18.8984 5.60156C19.6109 6.30938 20 7.25625 20 8.25V15.75C20 16.7437 19.6063 17.6859 18.8984 18.3984C18.1906 19.1109 17.2437 19.5 16.25 19.5H8.75C7.75625 19.5 6.81406 19.1063 6.10156 18.3984C5.38906 17.6906 5 16.7437 5 15.75V8.25C5 7.25625 5.39375 6.31406 6.10156 5.60156C6.80938 4.88906 7.75625 4.5 8.75 4.5H16.25ZM16.25 3H8.75C5.8625 3 3.5 5.3625 3.5 8.25V15.75C3.5 18.6375 5.8625 21 8.75 21H16.25C19.1375 21 21.5 18.6375 21.5 15.75V8.25C21.5 5.3625 19.1375 3 16.25 3Z" fill="#303030"/>
<path d="M17.375 8.25C16.7516 8.25 16.25 7.74844 16.25 7.125C16.25 6.50156 16.7516 6 17.375 6C17.9937 6 18.5 6.50156 18.5 7.125C18.5 7.74844 17.9937 8.25 17.375 8.25ZM12.5 9C14.1547 9 15.5 10.3453 15.5 12C15.5 13.6547 14.1547 15 12.5 15C10.8453 15 9.5 13.6547 9.5 12C9.5 10.3453 10.8453 9 12.5 9ZM12.5 7.5C10.0156 7.5 8 9.51562 8 12C8 14.4844 10.0156 16.5 12.5 16.5C14.9844 16.5 17 14.4844 17 12C17 9.51562 14.9844 7.5 12.5 7.5Z" fill="#303030"/>
</svg>
