<svg width="36" height="35" viewBox="0 0 25 24" fill="none" xmlns="http://www.w3.org/2000/svg">
<path d="M20.5062 3H4.49375C3.94531 3 3.5 3.44531 3.5 3.99375V20.0062C3.5 20.5547 3.94531 21 4.49375 21H12.5V13.875H10.3484V11.25H12.5V9.30938C12.5 6.98438 14.1125 5.71875 16.1891 5.71875C17.1828 5.71875 18.2516 5.79375 18.5 5.82656V8.25469H16.8453C15.7156 8.25469 15.5 8.78906 15.5 9.57656V11.25H18.1906L17.8391 13.875H15.5V21H20.5062C21.0547 21 21.5 20.5547 21.5 20.0062V3.99375C21.5 3.44531 21.0547 3 20.5062 3Z" fill="#303030"/>
</svg>
