<svg width="36" height="35" viewBox="0 0 23 16" fill="none" xmlns="http://www.w3.org/2000/svg">
<path d="M22.0393 2.5104C21.9148 2.02593 21.6722 1.58732 21.3373 1.24119C20.9929 0.884414 20.5708 0.629204 20.1109 0.499649C18.3897 0.00495568 11.4936 0.00495581 11.4936 0.00495581C8.61869 -0.0307094 5.7445 0.126155 2.88724 0.474664C2.42731 0.613791 2.00605 0.874703 1.66091 1.23419C1.32179 1.58997 1.07616 2.0287 0.947839 2.5094C0.639599 4.32002 0.489835 6.15848 0.500566 7.99999C0.489567 9.83985 0.638964 11.6777 0.947839 13.4906C1.07341 13.9693 1.31812 14.406 1.65816 14.7588C1.9982 15.1116 2.42164 15.3664 2.88724 15.5013C4.63143 15.995 11.4936 15.995 11.4936 15.995C14.3721 16.0307 17.25 15.8739 20.1109 15.5253C20.5708 15.3958 20.9929 15.1406 21.3373 14.7838C21.672 14.4377 21.9144 13.999 22.0384 13.5146C22.3547 11.7046 22.5085 9.86543 22.4976 8.02298C22.5214 6.17273 22.3678 4.32484 22.0393 2.5094V2.5104ZM9.30122 11.4219V4.57912L15.0388 8.00099L9.30122 11.4219Z" fill="#303030"/>
</svg>
