<svg width="36" height="35" viewBox="0 0 25 24" fill="none" xmlns="http://www.w3.org/2000/svg">
<path d="M20.0563 3H5.0375C4.21719 3 3.5 3.59063 3.5 4.40156V19.4531C3.5 20.2687 4.21719 20.9953 5.0375 20.9953H20.0516C20.8766 20.9953 21.4953 20.2641 21.4953 19.4531V4.40156C21.5 3.59063 20.8766 3 20.0563 3ZM9.07812 18H6.5V9.98438H9.07812V18ZM7.87812 8.76562H7.85938C7.03437 8.76562 6.5 8.15156 6.5 7.38281C6.5 6.6 7.04844 6 7.89219 6C8.73594 6 9.25156 6.59531 9.27031 7.38281C9.27031 8.15156 8.73594 8.76562 7.87812 8.76562ZM18.5 18H15.9219V13.6172C15.9219 12.5672 15.5469 11.85 14.6141 11.85C13.9016 11.85 13.4797 12.3328 13.2922 12.8016C13.2219 12.9703 13.2031 13.2 13.2031 13.4344V18H10.625V9.98438H13.2031V11.1C13.5781 10.5656 14.1641 9.79688 15.5281 9.79688C17.2203 9.79688 18.5 10.9125 18.5 13.3172V18Z" fill="#303030"/>
</svg>
