<svg width="63" height="12" viewBox="0 0 63 12" fill="none" xmlns="http://www.w3.org/2000/svg">
<path d="M5.79552 0H8.22734V8.11364C8.22734 8.86364 8.05878 9.51515 7.72165 10.0682C7.38832 10.6212 6.92431 11.0473 6.32961 11.3466C5.73491 11.6458 5.04362 11.7955 4.25575 11.7955C3.55499 11.7955 2.91862 11.6723 2.34665 11.4261C1.77847 11.1761 1.32772 10.7973 0.994382 10.2898C0.661049 9.77841 0.496276 9.13636 0.500064 8.36364H2.94893C2.9565 8.67045 3.019 8.93371 3.13643 9.15341C3.25764 9.36932 3.42241 9.53598 3.63075 9.65341C3.84287 9.76705 4.09287 9.82386 4.38075 9.82386C4.68378 9.82386 4.93946 9.75947 5.14779 9.63068C5.35991 9.49811 5.5209 9.30492 5.63075 9.05114C5.74059 8.79735 5.79552 8.48485 5.79552 8.11364V0Z" fill="black"/>
<path d="M14.1592 11.8068C13.2766 11.8068 12.5133 11.6193 11.8694 11.2443C11.2292 10.8655 10.7349 10.339 10.3864 9.66477C10.0379 8.98674 9.8637 8.20076 9.8637 7.30682C9.8637 6.4053 10.0379 5.61742 10.3864 4.94318C10.7349 4.26515 11.2292 3.73864 11.8694 3.36364C12.5133 2.98485 13.2766 2.79545 14.1592 2.79545C15.0417 2.79545 15.8031 2.98485 16.4432 3.36364C17.0872 3.73864 17.5834 4.26515 17.9319 4.94318C18.2804 5.61742 18.4546 6.4053 18.4546 7.30682C18.4546 8.20076 18.2804 8.98674 17.9319 9.66477C17.5834 10.339 17.0872 10.8655 16.4432 11.2443C15.8031 11.6193 15.0417 11.8068 14.1592 11.8068ZM14.1705 9.93182C14.572 9.93182 14.9073 9.81818 15.1762 9.59091C15.4451 9.35985 15.6478 9.04545 15.7842 8.64773C15.9243 8.25 15.9944 7.79735 15.9944 7.28977C15.9944 6.7822 15.9243 6.32955 15.7842 5.93182C15.6478 5.53409 15.4451 5.2197 15.1762 4.98864C14.9073 4.75758 14.572 4.64205 14.1705 4.64205C13.7652 4.64205 13.4243 4.75758 13.1478 4.98864C12.8751 5.2197 12.6686 5.53409 12.5285 5.93182C12.3921 6.32955 12.3239 6.7822 12.3239 7.28977C12.3239 7.79735 12.3921 8.25 12.5285 8.64773C12.6686 9.04545 12.8751 9.35985 13.1478 9.59091C13.4243 9.81818 13.7652 9.93182 14.1705 9.93182Z" fill="black"/>
<path d="M20.0739 11.6364V0H22.4944V4.375H22.5682C22.6743 4.14015 22.8277 3.90152 23.0285 3.65909C23.233 3.41288 23.4982 3.20833 23.8239 3.04545C24.1535 2.87879 24.5626 2.79545 25.0512 2.79545C25.6876 2.79545 26.2747 2.96212 26.8126 3.29545C27.3504 3.625 27.7804 4.12311 28.1023 4.78977C28.4243 5.45265 28.5853 6.28409 28.5853 7.28409C28.5853 8.25758 28.4281 9.07955 28.1137 9.75C27.8031 10.4167 27.3789 10.9223 26.841 11.267C26.3069 11.608 25.7084 11.7784 25.0455 11.7784C24.5758 11.7784 24.1762 11.7008 23.8467 11.5455C23.5209 11.3902 23.2539 11.1951 23.0455 10.9602C22.8372 10.7216 22.6781 10.4811 22.5682 10.2386H22.4603V11.6364H20.0739ZM22.4432 7.27273C22.4432 7.79167 22.5152 8.24432 22.6592 8.63068C22.8031 9.01705 23.0114 9.31818 23.2842 9.53409C23.5569 9.74621 23.8883 9.85227 24.2785 9.85227C24.6724 9.85227 25.0057 9.74432 25.2785 9.52841C25.5512 9.30871 25.7576 9.00568 25.8978 8.61932C26.0417 8.22917 26.1137 7.7803 26.1137 7.27273C26.1137 6.76894 26.0436 6.32576 25.9035 5.94318C25.7633 5.56061 25.5569 5.26136 25.2842 5.04545C25.0114 4.82955 24.6762 4.72159 24.2785 4.72159C23.8845 4.72159 23.5512 4.82576 23.2785 5.03409C23.0095 5.24242 22.8031 5.53788 22.6592 5.92045C22.5152 6.30303 22.4432 6.75379 22.4432 7.27273Z" fill="black"/>
<path d="M30.2458 11.6364V0H34.8367C35.7193 0 36.4712 0.168561 37.0924 0.505682C37.7136 0.839015 38.1871 1.30303 38.5128 1.89773C38.8424 2.48864 39.0072 3.17045 39.0072 3.94318C39.0072 4.71591 38.8405 5.39773 38.5072 5.98864C38.1738 6.57955 37.6909 7.03977 37.0583 7.36932C36.4295 7.69886 35.6682 7.86364 34.7742 7.86364H31.8481V5.89205H34.3765C34.85 5.89205 35.2401 5.81061 35.5469 5.64773C35.8575 5.48106 36.0886 5.25189 36.2401 4.96023C36.3954 4.66477 36.4731 4.32576 36.4731 3.94318C36.4731 3.55682 36.3954 3.2197 36.2401 2.93182C36.0886 2.64015 35.8575 2.41477 35.5469 2.25568C35.2363 2.0928 34.8424 2.01136 34.3651 2.01136H32.706V11.6364H30.2458Z" fill="black"/>
<path d="M42.9802 0V11.6364H40.5597V0H42.9802Z" fill="black"/>
<path d="M50.5157 7.92045V2.90909H52.9361V11.6364H50.6123V10.0511H50.5214C50.3244 10.5625 49.9967 10.9735 49.5384 11.2841C49.0839 11.5947 48.5289 11.75 47.8736 11.75C47.2903 11.75 46.7771 11.6174 46.3339 11.3523C45.8907 11.0871 45.5441 10.7102 45.2941 10.2216C45.0479 9.73295 44.9229 9.14773 44.9191 8.46591V2.90909H47.3396V8.03409C47.3433 8.54924 47.4816 8.95644 47.7543 9.25568C48.0271 9.55492 48.3926 9.70455 48.8509 9.70455C49.1426 9.70455 49.4153 9.63826 49.6691 9.50568C49.9229 9.36932 50.1274 9.16856 50.2827 8.90341C50.4418 8.63826 50.5195 8.31061 50.5157 7.92045Z" fill="black"/>
<path d="M62.1336 5.39773L59.9177 5.53409C59.8798 5.3447 59.7984 5.17424 59.6734 5.02273C59.5484 4.86742 59.3836 4.74432 59.179 4.65341C58.9783 4.55871 58.7378 4.51136 58.4575 4.51136C58.0825 4.51136 57.7662 4.59091 57.5086 4.75C57.251 4.9053 57.1222 5.11364 57.1222 5.375C57.1222 5.58333 57.2056 5.75947 57.3722 5.90341C57.5389 6.04735 57.8249 6.16288 58.2302 6.25L59.8097 6.56818C60.6582 6.74242 61.2908 7.02273 61.7075 7.40909C62.1241 7.79545 62.3325 8.30303 62.3325 8.93182C62.3325 9.50379 62.1639 10.0057 61.8268 10.4375C61.4934 10.8693 61.0351 11.2064 60.4518 11.4489C59.8722 11.6875 59.2037 11.8068 58.4461 11.8068C57.2908 11.8068 56.3703 11.5663 55.6847 11.0852C55.0029 10.6004 54.6033 9.94129 54.4859 9.10795L56.8665 8.98295C56.9385 9.33523 57.1128 9.60417 57.3893 9.78977C57.6658 9.97159 58.02 10.0625 58.4518 10.0625C58.876 10.0625 59.2169 9.98106 59.4745 9.81818C59.7359 9.65152 59.8684 9.4375 59.8722 9.17614C59.8684 8.95644 59.7756 8.77652 59.5938 8.63636C59.412 8.49242 59.1317 8.38258 58.7529 8.30682L57.2415 8.00568C56.3893 7.83523 55.7548 7.53977 55.3381 7.11932C54.9253 6.69886 54.7188 6.16288 54.7188 5.51136C54.7188 4.95076 54.8703 4.4678 55.1734 4.0625C55.4802 3.6572 55.9101 3.3447 56.4631 3.125C57.02 2.9053 57.6715 2.79545 58.4177 2.79545C59.52 2.79545 60.3874 3.02841 61.02 3.49432C61.6563 3.96023 62.0275 4.5947 62.1336 5.39773Z" fill="black"/>
</svg>
